<svg width="225" height="17" xmlns="http://www.w3.org/2000/svg"><path d="M0 0h225v5c0 8-2.667 12-8 12s-8.333-4-9-12c0 8-3 12-9 12s-9-4-9-12c0 8-3 12-9 12s-9.333-4-10-12c-.667 8-3.667 12-9 12s-7.667-4-7-12c-.667 8-4 12-10 12s-9.333-4-10-12c-.667 8-4.333 12-11 12-10 0-12-12-12-12s0 12-11 12c-7.333 0-10.667-4-10-12-1.333 8-4.333 12-9 12s-7.667-4-9-12c.667 8-2 12-8 12s-8.333-4-7-12c-2 8-5.333 12-10 12s-7.333-4-8-12c-.667 8-4 12-10 12s-9-4-9-12c-2.667 8-6.333 12-11 12S2 13 0 5V0z" fill="#2B50AA" fill-rule="evenodd"/></svg>