<?xml version="1.0" encoding="UTF-8"?>
<svg width="320px" height="39px" viewBox="0 0 320 39" version="1.1" xmlns="http://www.w3.org/2000/svg" xmlns:xlink="http://www.w3.org/1999/xlink">
    <title>grey-border</title>
    <g id="Page-1" stroke="none" stroke-width="1" fill="none" fill-rule="evenodd">
        <g id="grey-border" transform="translate(160.000000, 19.500000) scale(1, -1) translate(-160.000000, -19.500000) " fill="#FAFFFD">
            <path d="M320,1.523 C320,26.207 314.219,38.55 302.657,38.55 C285.313,38.55 289.504,-5.818 289.504,1.523 C289.504,8.863 286.051,38.55 275.69,38.55 C268.782,38.55 264.186,26.56 261.902,2.579 C261.817,26.559 258.205,38.549 251.066,38.549 C243.927,38.549 240.055,26.559 239.448,2.579 C238.842,26.559 235.152,38.549 228.38,38.549 C221.608,38.549 218.174,26.559 218.078,2.579 C214.805,26.559 209.795,38.549 203.046,38.549 C196.298,38.549 192.956,26.559 193.019,2.579 C192.591,26.559 188.756,38.549 181.512,38.549 C174.269,38.549 170.674,26.559 170.729,2.579 C169.851,26.559 166.275,38.549 160,38.549 C153.726,38.549 150.626,26.559 150.7,2.579 C150.47,26.559 147.053,38.549 140.447,38.549 C133.84,38.549 130.573,26.559 130.645,2.579 C129.965,26.559 126.145,38.549 119.187,38.549 C112.23,38.549 109.266,26.559 110.295,2.579 C105.373,29.479 100.046,41.469 94.315,38.549 C88.583,35.63 85.551,23.64 85.217,2.579 C82.808,26.559 79.338,38.549 74.807,38.549 C70.275,38.549 67.232,26.207 65.679,1.523 C66.711,26.207 63.401,38.55 55.749,38.55 C48.099,38.55 44.766,26.207 45.752,1.523 C43.784,26.207 40.01,38.55 34.432,38.55 C28.852,38.55 25.69,26.56 24.944,2.579 C24.008,26.559 20.522,38.549 14.484,38.549 C8.449,38.55 3.62,26.208 0,1.524 L320,1.523 Z" id="Path"></path>
        </g>
    </g>
</svg>