<svg viewBox="0 0 200 200" xmlns="http://www.w3.org/2000/svg">
  <path fill="#FB3640" d="M42.6,-73.5C56.7,-65.7,70.7,-57.3,76.9,-44.9C83.1,-32.6,81.6,-16.3,80.4,-0.7C79.2,14.9,78.4,29.8,72.5,42.7C66.5,55.6,55.6,66.5,42.7,71.6C29.8,76.8,14.9,76.3,-0.6,77.4C-16.2,78.5,-32.3,81.3,-43.2,74.9C-54.1,68.6,-59.7,53.1,-67.1,39.1C-74.5,25.1,-83.7,12.6,-84,-0.2C-84.4,-13,-75.9,-26,-67.2,-37.5C-58.4,-49.1,-49.2,-59.2,-37.9,-68.7C-26.7,-78.2,-13.3,-87,0.5,-87.7C14.3,-88.5,28.5,-81.3,42.6,-73.5Z" transform="translate(100 100)" />
</svg>
