<svg width="320" height="74" xmlns="http://www.w3.org/2000/svg"><path d="M0 36.523V.133h320v36.39c0 24.684-5.781 37.027-17.343 37.027-17.344 0-13.153-44.368-13.153-37.027 0 7.34-3.453 37.027-13.814 37.027-6.908 0-11.504-11.99-13.788-35.971-.085 23.98-3.697 35.97-10.836 35.97s-11.011-11.99-11.618-35.97c-.606 23.98-4.296 35.97-11.068 35.97-6.772 0-10.206-11.99-10.302-35.97-3.273 23.98-8.283 35.97-15.032 35.97-6.748 0-10.09-11.99-10.027-35.97-.428 23.98-4.263 35.97-11.507 35.97-7.243 0-10.838-11.99-10.783-35.97-.878 23.98-4.454 35.97-10.729 35.97-6.274 0-9.374-11.99-9.3-35.97-.23 23.98-3.647 35.97-10.253 35.97-6.607 0-9.874-11.99-9.802-35.97-.68 23.98-4.5 35.97-11.458 35.97-6.957 0-9.921-11.99-8.892-35.97-4.922 26.9-10.249 38.89-15.98 35.97-5.732-2.919-8.764-14.909-9.098-35.97-2.409 23.98-5.879 35.97-10.41 35.97-4.532 0-7.575-12.342-9.128-37.026 1.032 24.684-2.278 37.027-9.93 37.027-7.65 0-10.983-12.343-9.997-37.027-1.968 24.684-5.742 37.027-11.32 37.027-5.58 0-8.742-11.99-9.488-35.971-.936 23.98-4.422 35.97-10.46 35.97C8.449 73.55 3.62 61.208 0 36.524z" fill="#fcdc65" fill-rule="evenodd"/></svg>